<svg width="16" height="16" viewBox="0 0 16 16" fill="none" xmlns="http://www.w3.org/2000/svg">
<g clip-path="url(#clip0_8_445)">
<path fill-rule="evenodd" clip-rule="evenodd" d="M3 0.5L2.5 1V13L3 13.5H15L15.5 13V1L15 0.5H3ZM3.5 12.5V1.5H14.5V12.5H3.5ZM1.5 2V14.5H14V15.5H1L0.5 15V2H1.5ZM7.70154 3.80943C7.61024 3.23726 7.11448 2.8 6.51659 2.8C5.85385 2.8 5.31659 3.33726 5.31659 4C5.31659 4.66274 5.85385 5.2 6.51659 5.2C6.70189 5.2 6.87739 5.158 7.03407 5.083L8.18273 6.02281L7.42091 6.23058C7.20078 5.9674 6.86994 5.8 6.5 5.8C5.83726 5.8 5.3 6.33726 5.3 7C5.3 7.66274 5.83726 8.2 6.5 8.2C6.86994 8.2 7.20078 8.0326 7.42091 7.76942L8.18273 7.97719L7.02786 8.92208C6.86857 8.84393 6.68941 8.80005 6.5 8.80005C5.83726 8.80005 5.3 9.33731 5.3 10C5.3 10.6628 5.83726 11.2 6.5 11.2C7.09626 11.2 7.59094 10.7652 7.6842 10.1953L11.0791 9.26942C11.2992 9.5326 11.6301 9.7 12 9.7C12.6627 9.7 13.2 9.16274 13.2 8.5C13.2 7.83726 12.6627 7.3 12 7.3C11.8106 7.3 11.6314 7.34389 11.4721 7.42205L10.9563 7L11.4721 6.57795C11.6314 6.65611 11.8106 6.7 12 6.7C12.6627 6.7 13.2 6.16274 13.2 5.5C13.2 4.83726 12.6627 4.3 12 4.3C11.6301 4.3 11.2992 4.4674 11.0791 4.73058L7.70154 3.80943ZM9.13288 6.8002L8.40029 7L9.13288 7.1998L9.37707 7L9.13288 6.8002ZM9.36712 8.3002L8.63453 8.89959L10.0997 8.5L9.36712 8.3002ZM10.0997 5.5L9.36712 5.6998L8.63454 5.10041L10.0997 5.5Z" fill="white"/>
</g>
<defs>
<clipPath id="clip0_8_445">
<rect width="16" height="16" fill="white"/>
</clipPath>
</defs>
</svg>
