<svg width="16" height="16" viewBox="0 0 16 16" fill="none" xmlns="http://www.w3.org/2000/svg">
<g clip-path="url(#clip0_8_456)">
<path fill-rule="evenodd" clip-rule="evenodd" d="M3.5 4C4.05228 4 4.5 3.55228 4.5 3C4.5 2.44772 4.05228 2 3.5 2C2.94772 2 2.5 2.44772 2.5 3C2.5 3.55228 2.94772 4 3.5 4ZM5.5 3C5.5 3.85388 4.9649 4.58277 4.21174 4.86965L11.5196 6.52598C11.1938 6.10379 11 5.57453 11 5C11 3.61929 12.1193 2.5 13.5 2.5C14.8807 2.5 16 3.61929 16 5C16 5.97423 15.4427 6.81831 14.6296 7.23086L16.0232 7.54672L15.8021 8.52198L8.84184 6.94443L11.4743 14.8419L11 15.5H5L4.52566 14.8419L7.27642 6.58963L0.197891 4.98527L0.418936 4.01001L2.05266 4.38029C1.71025 4.02136 1.5 3.53523 1.5 3C1.5 1.89543 2.39543 1 3.5 1C4.60457 1 5.5 1.89543 5.5 3ZM10.3063 14.5H5.69371L8 7.58117L10.3063 14.5ZM15 5C15 5.82843 14.3284 6.5 13.5 6.5C12.6716 6.5 12 5.82843 12 5C12 4.17157 12.6716 3.5 13.5 3.5C14.3284 3.5 15 4.17157 15 5Z" fill="black"/>
</g>
<defs>
<clipPath id="clip0_8_456">
<rect width="16" height="16" fill="white"/>
</clipPath>
</defs>
</svg>
