<svg width="16" height="16" viewBox="0 0 16 16" fill="none" xmlns="http://www.w3.org/2000/svg">
<path fill-rule="evenodd" clip-rule="evenodd" d="M6 2C6 2.03366 5.99917 2.06712 5.99753 2.10037L10.3005 3.44506C10.6535 2.87769 11.2826 2.5 12 2.5C13.1046 2.5 14 3.39543 14 4.5C14 5.60457 13.1046 6.5 12 6.5C11.6901 6.5 11.3966 6.4295 11.1348 6.30367L10.0026 7.64817L11.0366 8.74688C11.3224 8.58953 11.6507 8.5 12 8.5C13.1046 8.5 14 9.39543 14 10.5C14 11.6046 13.1046 12.5 12 12.5C11.3612 12.5 10.7923 12.2005 10.4262 11.7343L5.97482 13.6818C5.99139 13.7854 6 13.8917 6 14C6 15.1046 5.10457 16 4 16C2.89543 16 2 15.1046 2 14C2 12.8954 2.89543 12 4 12C4.30992 12 4.60337 12.0705 4.8652 12.1963L7.13327 9.50298L5.69948 9.05492C5.34654 9.6223 4.71738 10 4 10C2.89543 10 2 9.10457 2 8C2 6.89543 2.89543 6 4 6C4.63879 6 5.20763 6.29948 5.57379 6.76569L7.1498 6.07619L4.96337 3.75311C4.67762 3.91047 4.34927 4 4 4C2.89543 4 2 3.10457 2 2C2 0.895431 2.89543 0 4 0C5.10457 0 6 0.895431 6 2ZM5 2C5 2.55228 4.55228 3 4 3C3.44772 3 3 2.55228 3 2C3 1.44772 3.44772 1 4 1C4.4771 1 4.87617 1.33412 4.97598 1.78113C4.98696 1.8303 4.99431 1.88084 4.99775 1.93245C4.99924 1.95478 5 1.9773 5 2ZM4.17549 13.0153C4.11851 13.0053 4.05987 13 4 13C3.44772 13 3 13.4477 3 14C3 14.5523 3.44772 15 4 15C4.5148 15 4.93875 14.611 4.99392 14.1109C4.99794 14.0745 5 14.0375 5 14C5 13.5076 4.64411 13.0983 4.17549 13.0153ZM5.69948 3.05492L5.69149 3.06766L8.12251 5.65062L10.0252 4.81821C10.0086 4.71458 10 4.60829 10 4.5C10 4.46633 10.0008 4.43286 10.0025 4.3996L5.69948 3.05492ZM9.35408 8.41824L10.3085 9.43233L10.3005 9.44506L8.86671 8.99699L9.35408 8.41824ZM8.16825 9.82641L10.0025 10.3996C10.0008 10.4329 10 10.4663 10 10.5C10 10.6083 10.0086 10.7146 10.0252 10.8182L5.76265 12.6831L8.16825 9.82641ZM5 8.00004C5 8.06906 4.993 8.13645 4.97968 8.20153C4.88644 8.65722 4.48325 9 4 9C3.44772 9 3 8.55228 3 8C3 7.44772 3.44772 7 4 7C4.22201 7 4.42713 7.07235 4.59306 7.19476C4.83991 7.37685 5 7.66975 5 8.00004ZM7.83173 8.67356L5.99753 8.10037C5.99917 8.06712 6 8.03366 6 8C6 7.89169 5.99139 7.78539 5.97482 7.68175L7.87747 6.84934L8.66409 7.68513L7.83173 8.67356ZM12 5.5C12.5523 5.5 13 5.05228 13 4.5C13 3.94772 12.5523 3.5 12 3.5C11.4477 3.5 11 3.94772 11 4.5C11 5.05228 11.4477 5.5 12 5.5ZM13 10.5C13 11.0523 12.5523 11.5 12 11.5C11.4477 11.5 11 11.0523 11 10.5C11 9.94771 11.4477 9.5 12 9.5C12.5523 9.5 13 9.94771 13 10.5ZM8.85019 6.42378L9.31257 6.91506L10.2373 5.8169L8.85019 6.42378Z" fill="black"/>
</svg>
