<svg width="90" height="90" viewBox="0 0 90 90" fill="none" xmlns="http://www.w3.org/2000/svg">
<path fill-rule="evenodd" clip-rule="evenodd" d="M57.921 37.4912C53.4584 37.4912 49.8418 40.9506 49.8418 45.2192C49.8418 49.4878 53.4584 52.9472 57.921 52.9472C62.3836 52.9472 66.0003 49.4878 66.0003 45.2192C66.0003 40.9506 62.3836 37.4912 57.921 37.4912Z" fill="#3524CB"/>
<path fill-rule="evenodd" clip-rule="evenodd" d="M57.6966 14.3197C53.3023 14.3197 49.7409 17.881 49.7409 22.2754C49.7409 23.555 50.0428 24.7744 50.586 25.8367L36.2802 38.6454C35.6163 38.1868 34.8798 37.8367 34.0831 37.5951V29.893C37.3667 28.9151 39.7572 25.8729 39.7572 22.2754C39.7572 17.881 36.1957 14.3197 31.8014 14.3197C27.4071 14.3197 23.8457 17.881 23.8457 22.2754C23.8457 26.0057 26.4052 29.1325 29.8699 29.9896V37.4986C26.4172 38.3678 23.8457 41.4946 23.8457 45.2128C23.8457 48.9311 26.4052 52.0699 29.8699 52.927V60.4366C26.4172 61.3057 23.8457 64.4325 23.8457 68.1508C23.8457 72.5451 27.4071 76.1064 31.8014 76.1064C36.1957 76.1064 39.7572 72.5451 39.7572 68.1508C39.7572 64.5532 37.3667 61.5111 34.0831 60.5331V52.8305C37.3667 51.8527 39.7572 48.8104 39.7572 45.2128C39.7572 44.0056 39.4916 42.8709 39.0086 41.8567L53.3988 28.9634C54.6422 29.7602 56.1032 30.219 57.6847 30.219C62.0789 30.219 65.6402 26.6576 65.6402 22.2633C65.6402 17.869 62.0789 14.3076 57.6847 14.3076L57.6966 14.3197Z" fill="#00E58D"/>
<path fill-rule="evenodd" clip-rule="evenodd" d="M57.921 59.9727C53.4584 59.9727 49.8418 63.5894 49.8418 68.052C49.8418 72.5146 53.4584 76.1313 57.921 76.1313C62.3836 76.1313 66.0003 72.5146 66.0003 68.052C66.0003 63.5894 62.3836 59.9727 57.921 59.9727Z" fill="#3524CB"/>
</svg>
