<svg width="24" height="24" viewBox="0 0 24 24" fill="none" xmlns="http://www.w3.org/2000/svg">
<path d="M7.09449 15.0709C8.80353 15.0709 10.189 13.6907 10.189 11.9882C10.189 10.2857 8.80353 8.90552 7.09449 8.90552C5.38545 8.90552 4 10.2857 4 11.9882C4 13.6907 5.38545 15.0709 7.09449 15.0709Z" fill="black"/>
<path d="M7.09449 6.16535C8.80353 6.16535 10.189 4.78519 10.189 3.08268C10.189 1.38016 8.80353 0 7.09449 0C5.38545 0 4 1.38016 4 3.08268C4 4.78519 5.38545 6.16535 7.09449 6.16535Z" fill="black"/>
<path d="M7.09449 24C8.80353 24 10.189 22.6146 10.189 20.9055C10.189 19.1965 8.80353 17.811 7.09449 17.811C5.38545 17.811 4 19.1965 4 20.9055C4 22.6146 5.38545 24 7.09449 24Z" fill="black"/>
<path d="M17.1457 15.0709C18.8482 15.0709 20.2283 13.6907 20.2283 11.9882C20.2283 10.2857 18.8482 8.90552 17.1457 8.90552C15.4432 8.90552 14.063 10.2857 14.063 11.9882C14.063 13.6907 15.4432 15.0709 17.1457 15.0709Z" fill="black"/>
<path d="M17.1457 6.16535C18.8482 6.16535 20.2283 4.78519 20.2283 3.08268C20.2283 1.38016 18.8482 0 17.1457 0C15.4432 0 14.063 1.38016 14.063 3.08268C14.063 4.78519 15.4432 6.16535 17.1457 6.16535Z" fill="black"/>
<path d="M17.1457 24C18.8482 24 20.2283 22.6146 20.2283 20.9055C20.2283 19.1965 18.8482 17.811 17.1457 17.811C15.4432 17.811 14.063 19.1965 14.063 20.9055C14.063 22.6146 15.4432 24 17.1457 24Z" fill="black"/>
<path fill-rule="evenodd" clip-rule="evenodd" d="M17.8228 2.49277C18.1243 2.82929 18.0957 3.34634 17.759 3.64764L7.97559 12.4003V20.9144C7.97559 21.3661 7.60913 21.7323 7.15709 21.7323C6.70504 21.7323 6.33858 21.3661 6.33858 20.9144V3.03833C6.33858 2.58664 6.70504 2.22047 7.15709 2.22047C7.60913 2.22047 7.97559 2.58664 7.97559 3.03833V10.2047L16.667 2.42901C17.0038 2.12771 17.5212 2.15626 17.8228 2.49277Z" fill="black"/>
</svg>
