<?xml version="1.0"?>
<svg width="256" height="256" xmlns="http://www.w3.org/2000/svg" xmlns:svg="http://www.w3.org/2000/svg">
 <defs>
  <style>.cls-1 {
        fill: #101820;
      }</style>
 </defs>
 <g class="layer">
  <title>Layer 1</title>
  <g id="svg_4">
   <path class="cls-1" d="m32.21,19.95l187.38,108.19l-187.38,108.19l0,-216.38m-5.21,-9.02l0,234.41l203,-117.21l-203,-117.21l0,0z" id="svg_1"/>
   <path class="cls-1" d="m183.15,120.33l-3.9,0c-23.68,0 -42.94,-19.26 -42.94,-42.94l0,-3.34l-15.62,-9.02l0,12.36c0,23.68 -19.26,42.94 -42.94,42.94l-3.9,0l0,15.62l3.9,0c23.68,0 42.94,19.26 42.94,42.94l0,12.36l15.62,-9.02l0,-3.34c0,-23.68 19.26,-42.94 42.94,-42.94l3.9,0l0,-15.62zm-54.65,29.4c-5.17,-8.97 -12.64,-16.42 -21.59,-21.59c8.97,-5.17 16.42,-12.64 21.59,-21.59c5.17,8.97 12.64,16.42 21.59,21.59c-8.97,5.17 -16.42,12.64 -21.59,21.59z" id="Sparkle"/>
   <polygon class="cls-1" id="svg_2" points="214.3845977783203,177.72833251953125 128.5,227.3071746826172 42.61538314819336,177.72833251953125 27,168.71043395996094 27,186.73318481445312 128.5,245.3429412841797 229.99998474121094,186.73318481445312 229.99998474121094,128.136474609375 214.3845977783203,119.11859130859375 214.3845977783203,177.72833251953125 "/>
   <polygon class="cls-1" id="svg_3" points="42.61538314819336,78.55763244628906 128.5,28.965770721435547 214.3845977783203,78.55763244628906 229.99998474121094,87.56249237060547 229.99998474121094,69.53974151611328 128.5,10.930000305175781 27,69.53974151611328 27,128.136474609375 42.61538314819336,137.1543426513672 42.61538314819336,78.55763244628906 "/>
  </g>
 </g>
</svg>